# xmcd
#
# Track frame offsets: 
#        150
#        18753
#        35732
#        53408
#        73202
#        89287
#        104875
#        123927
#        139926
#        156256
#        176998
#        195352
#
# Disc length: 2844 seconds
#
# Revision: 2
# Processed by: cddbd v1.5.1PL0 Copyright (c) Steve Scherf et al.
# Submitted via: ExactAudioCopy v0.95a5
#
DISCID=a80b1a0c
DTITLE=Sammy Kershaw - Maybe Not Tonight
DYEAR=2001
DGENRE=Country
TTITLE0=Maybe Not Tonight
TTITLE1=Me And Maxine
TTITLE2=Without Strings
TTITLE3=More Than I Can Say
TTITLE4=Love Me, Loving You
TTITLE5=I've Never Gone This Far Before
TTITLE6=When You Love Someone
TTITLE7=Ouch
TTITLE8=How Can I Say No
TTITLE9=Look What I Did To Us
TTITLE10=Louisiana Hot Sauce
TTITLE11=How Much Does The World Weigh
EXTD=YEAR: 2001  ID3G:  17
EXTT0=
EXTT1=
EXTT2=
EXTT3=
EXTT4=
EXTT5=
EXTT6=
EXTT7=
EXTT8=
EXTT9=
EXTT10=
EXTT11=
PLAYORDER=
